<svg xmlns="http://www.w3.org/2000/svg" xmlns:xlink="http://www.w3.org/1999/xlink" width="1512" zoomAndPan="magnify" viewBox="0 0 1134 736.499978" height="982" preserveAspectRatio="xMidYMid meet" version="1.0"><defs><filter x="0%" y="0%" width="100%" height="100%" id="c068037de9"><feColorMatrix values="0 0 0 0 1 0 0 0 0 1 0 0 0 0 1 0 0 0 1 0" color-interpolation-filters="sRGB"/></filter><clipPath id="a933effc58"><path d="M 376 488 L 767 488 L 767 736 L 376 736 Z M 376 488 " clip-rule="nonzero"/></clipPath><mask id="2685c362ce"><g filter="url(#c068037de9)"><rect x="-113.4" width="1360.8" fill="#000000" y="-73.649998" height="883.799974" fill-opacity="0.2"/></g></mask><clipPath id="47dd0ac096"><rect x="0" width="333" y="0" height="145"/></clipPath><clipPath id="ba07a834d5"><path d="M 268.164062 2 L 874.5 2 L 874.5 586 L 268.164062 586 Z M 268.164062 2 " clip-rule="nonzero"/></clipPath></defs><g clip-path="url(#a933effc58)"><path fill="#fbef95" d="M 571.410156 488.140625 C 679.082031 488.140625 766.371094 585.441406 766.371094 705.480469 C 636.398438 748.804688 506.425781 748.804688 376.453125 705.480469 C 376.453125 585.445312 463.746094 488.140625 571.410156 488.140625 Z M 571.410156 488.140625 " fill-opacity="1" fill-rule="evenodd"/></g><path fill="#4c692f" d="M 706.398438 722.394531 C 703.023438 723.171875 699.640625 723.914062 696.265625 724.644531 C 696.101562 716.890625 695.625 709.007812 694.890625 701.144531 C 692.675781 677.425781 688.058594 653.949219 682.160156 635.339844 C 681.308594 632.652344 682.800781 629.78125 685.492188 628.929688 C 688.183594 628.078125 691.050781 629.570312 691.902344 632.261719 C 697.976562 651.425781 702.738281 675.671875 705.03125 700.230469 C 705.722656 707.628906 706.191406 715.058594 706.398438 722.394531 Z M 446.558594 724.636719 C 443.183594 723.90625 439.800781 723.164062 436.425781 722.386719 C 436.632812 715.050781 437.101562 707.621094 437.792969 700.222656 C 440.089844 675.664062 444.839844 651.417969 450.921875 632.253906 C 451.773438 629.566406 454.644531 628.070312 457.332031 628.921875 C 460.023438 629.765625 461.515625 632.644531 460.664062 635.335938 C 454.765625 653.941406 450.148438 677.417969 447.933594 701.140625 C 447.199219 709 446.730469 716.882812 446.558594 724.636719 Z M 446.558594 724.636719 " fill-opacity="1" fill-rule="evenodd"/><g mask="url(#2685c362ce)"><g transform="matrix(1, 0, 0, 1, 405, 485)"><g clip-path="url(#47dd0ac096)"><path fill="#4c692f" d="M 166.410156 3.140625 C 233.863281 3.140625 293.308594 41.328125 328.316406 99.371094 C 281.457031 123.785156 225.945312 137.929688 166.410156 137.929688 C 106.878906 137.929688 51.359375 123.785156 4.507812 99.371094 C 39.515625 41.328125 98.960938 3.140625 166.410156 3.140625 Z M 166.410156 3.140625 " fill-opacity="1" fill-rule="evenodd"/></g></g></g><g clip-path="url(#ba07a834d5)"><path fill="#fbef95" d="M 571.410156 86.023438 C 579.261719 86.023438 587.050781 86.265625 594.761719 86.75 L 594.761719 86.628906 C 594.761719 40.050781 631.300781 2.292969 676.375 2.292969 C 721.453125 2.292969 757.988281 40.050781 757.988281 86.628906 C 757.988281 103.042969 753.445312 118.355469 745.589844 131.3125 C 823.707031 176.542969 874.777344 251.347656 874.777344 335.992188 C 874.777344 474.054688 738.957031 585.964844 571.410156 585.964844 C 403.867188 585.964844 268.039062 474.046875 268.039062 335.992188 C 268.039062 251.347656 319.109375 176.542969 397.226562 131.3125 C 389.371094 118.355469 384.828125 103.042969 384.828125 86.628906 C 384.828125 40.050781 421.367188 2.292969 466.441406 2.292969 C 511.519531 2.292969 548.054688 40.050781 548.054688 86.628906 L 548.054688 86.75 C 555.773438 86.265625 563.554688 86.023438 571.410156 86.023438 Z M 571.410156 86.023438 " fill-opacity="1" fill-rule="evenodd"/></g><path fill="#98c34c" d="M 285.480469 252.285156 C 289.230469 243.59375 293.542969 235.128906 298.390625 226.90625 C 298.878906 226.847656 299.378906 226.820312 299.882812 226.820312 C 308.472656 226.820312 315.433594 235.085938 315.433594 245.304688 C 315.433594 255.507812 308.472656 263.789062 299.882812 263.789062 C 293.378906 263.789062 287.800781 259.035156 285.480469 252.285156 Z M 821.535156 275.054688 C 815.875 275.054688 811.28125 279.375 811.28125 284.703125 C 811.28125 290.027344 815.875 294.347656 821.535156 294.347656 C 827.199219 294.347656 831.792969 290.027344 831.792969 284.703125 C 831.792969 279.367188 827.199219 275.054688 821.535156 275.054688 Z M 800.460938 229.078125 C 792.125 229.078125 785.359375 235.4375 785.359375 243.277344 C 785.359375 251.125 792.125 257.484375 800.460938 257.484375 C 808.800781 257.484375 815.566406 251.125 815.566406 243.277344 C 815.566406 235.429688 808.800781 229.078125 800.460938 229.078125 Z M 844.703125 227.367188 C 850.5 237.253906 855.527344 247.496094 859.730469 258.046875 C 856.898438 261.582031 852.902344 263.789062 848.46875 263.789062 C 839.878906 263.789062 832.917969 255.515625 832.917969 245.304688 C 832.917969 236.632812 837.929688 229.371094 844.703125 227.367188 Z M 326.820312 275.054688 C 332.480469 275.054688 337.074219 279.375 337.074219 284.703125 C 337.074219 290.027344 332.480469 294.347656 326.820312 294.347656 C 321.160156 294.347656 316.566406 290.027344 316.566406 284.703125 C 316.566406 279.367188 321.160156 275.054688 326.820312 275.054688 Z M 347.894531 229.078125 C 356.230469 229.078125 362.996094 235.4375 362.996094 243.277344 C 362.996094 251.125 356.230469 257.484375 347.894531 257.484375 C 339.558594 257.484375 332.792969 251.125 332.792969 243.277344 C 332.792969 235.429688 339.550781 229.078125 347.894531 229.078125 Z M 347.894531 229.078125 " fill-opacity="1" fill-rule="evenodd"/><path fill="#171717" d="M 479.632812 66.84375 C 494.964844 66.84375 507.40625 79.277344 507.40625 94.617188 C 507.40625 109.953125 494.972656 122.394531 479.632812 122.394531 C 464.292969 122.394531 451.859375 109.953125 451.859375 94.617188 C 451.867188 79.277344 464.300781 66.84375 479.632812 66.84375 Z M 538.515625 256.027344 C 538.515625 260.261719 535.082031 263.695312 530.847656 263.695312 C 526.613281 263.695312 523.179688 260.261719 523.179688 256.027344 C 523.179688 242.707031 528.582031 230.640625 537.308594 221.921875 C 546.035156 213.203125 558.09375 207.792969 571.414062 207.792969 C 584.730469 207.792969 596.796875 213.195312 605.523438 221.921875 C 614.25 230.648438 619.652344 242.714844 619.652344 256.027344 C 619.652344 260.261719 616.21875 263.695312 611.984375 263.695312 C 607.75 263.695312 604.316406 260.261719 604.316406 256.027344 C 604.316406 246.933594 600.632812 238.710938 594.683594 232.753906 C 588.734375 226.796875 580.503906 223.117188 571.414062 223.117188 C 562.328125 223.117188 554.097656 226.804688 548.148438 232.753906 C 542.199219 238.703125 538.515625 246.933594 538.515625 256.027344 Z M 634.992188 67.722656 C 631.15625 69.492188 626.609375 67.816406 624.84375 63.980469 C 623.078125 60.144531 624.75 55.601562 628.585938 53.832031 L 692.597656 24.082031 C 696.433594 22.308594 700.976562 23.988281 702.742188 27.824219 C 704.511719 31.664062 702.835938 36.207031 699 37.972656 Z M 514.246094 53.839844 L 450.234375 24.089844 C 446.398438 22.316406 441.847656 23.996094 440.082031 27.832031 C 438.3125 31.671875 439.988281 36.214844 443.824219 37.980469 L 507.832031 67.730469 C 511.667969 69.5 516.214844 67.824219 517.980469 63.988281 C 519.753906 60.152344 518.074219 55.609375 514.246094 53.839844 Z M 663.191406 66.84375 C 647.859375 66.84375 635.417969 79.277344 635.417969 94.617188 C 635.417969 109.953125 647.851562 122.394531 663.191406 122.394531 C 678.53125 122.394531 690.964844 109.953125 690.964844 94.617188 C 690.964844 79.277344 678.53125 66.84375 663.191406 66.84375 Z M 663.191406 66.84375 " fill-opacity="1" fill-rule="evenodd"/></svg>