<svg xmlns="http://www.w3.org/2000/svg" xmlns:xlink="http://www.w3.org/1999/xlink" width="1512" zoomAndPan="magnify" viewBox="0 0 1134 736.499978" height="982" preserveAspectRatio="xMidYMid meet" version="1.0"><path fill="#fbef95" d="M 951.664062 258.929688 C 922.980469 232.195312 892.117188 260.34375 871.871094 290.457031 C 849.441406 323.804688 848.308594 341.457031 816.601562 373.8125 C 793.460938 397.425781 770.261719 421.371094 742.683594 435.332031 C 704.957031 454.417969 688.113281 403.625 677.605469 375.414062 C 666.9375 346.746094 666.585938 338.53125 667.675781 307.917969 C 669.328125 261.261719 677.933594 207.066406 689.964844 162.066406 C 700.027344 124.378906 734.695312 94.335938 735.058594 54.207031 C 735.355469 20.699219 723.035156 -0.0585938 690.675781 0.421875 C 652.179688 0.984375 645.179688 45.628906 650.117188 82.066406 C 655.574219 122.417969 658.109375 149.574219 652.199219 191.21875 C 646.75 229.570312 641.84375 252.890625 634.480469 290.945312 C 628.148438 323.644531 614.957031 362.996094 586.914062 383.257812 C 553.503906 407.394531 517.59375 393.828125 504.125 355.804688 C 488.578125 311.925781 469.9375 249.421875 464.578125 203 C 460.082031 164.113281 471.410156 130.695312 458.257812 92.9375 C 450.332031 70.175781 429.253906 48.464844 399.539062 61.660156 C 364.1875 77.355469 368.625 116.957031 386.515625 148.773438 C 406.332031 184 431.230469 209.253906 442.527344 249.773438 C 448.417969 270.882812 470.707031 339.625 472.0625 368.164062 C 473.152344 391.035156 473.324219 406.34375 456.976562 423.78125 C 426.019531 456.800781 377.722656 435.355469 352.4375 408.917969 C 329.828125 385.265625 296.199219 357.3125 282.492188 326.699219 C 270.960938 300.964844 261.46875 287.972656 246.472656 270.980469 C 226.386719 248.210938 196.433594 242.191406 178.890625 267.316406 C 158.03125 297.207031 180.445312 321.109375 209.175781 337.632812 C 263.648438 368.972656 319.730469 407.921875 355.222656 461.457031 C 383.0625 503.457031 394.515625 556.539062 421.1875 599.9375 C 445.921875 640.199219 474.753906 684.105469 512.730469 713.125 C 527.832031 724.667969 548.835938 735.988281 568.554688 735.914062 C 685.210938 735.449219 735.070312 515.125 760.8125 481.296875 C 785.964844 448.226562 806.261719 414.476562 840.242188 392.847656 C 872.34375 372.402344 919.023438 370.941406 945.582031 341.867188 C 967.761719 317.585938 975.785156 281.410156 951.664062 258.929688 " fill-opacity="1" fill-rule="nonzero"/></svg>