<svg xmlns="http://www.w3.org/2000/svg" xmlns:xlink="http://www.w3.org/1999/xlink" width="1512" zoomAndPan="magnify" viewBox="0 0 1134 736.499978" height="982" preserveAspectRatio="xMidYMid meet" version="1.0"><path fill="#e9e9e9" d="M 989.296875 371.316406 C 1029.878906 372.175781 1070.476562 372.363281 1111.074219 371.898438 C 1115.398438 371.855469 1119.792969 372.042969 1123.769531 373.949219 C 1129.765625 376.816406 1133.230469 381.5625 1132.617188 388.40625 C 1132.007812 395.289062 1127.699219 399.425781 1121.191406 400.734375 C 1117.011719 401.578125 1112.601562 401.476562 1108.292969 401.476562 C 1047.390625 401.460938 986.472656 401.257812 925.566406 401.402344 C 908.742188 401.449219 891.929688 402.625 875.101562 402.976562 C 862.378906 403.238281 861.679688 403.0625 862.261719 415.960938 C 862.886719 429.6875 856.832031 439.570312 846.0625 446.238281 C 836.191406 452.335938 825.332031 456.949219 813.484375 458.335938 C 810.484375 458.683594 807.5 459.265625 804.503906 459.570312 C 776.144531 462.511719 747.878906 465.960938 719.726562 470.664062 C 686.421875 476.222656 652.605469 476.851562 618.980469 477.59375 C 575.457031 478.566406 531.746094 479.9375 488.714844 469.761719 C 476.996094 466.996094 464.609375 468.742188 452.511719 468.859375 C 410.605469 469.265625 368.667969 469.179688 326.878906 466.105469 C 307.183594 464.667969 287.515625 460.675781 268.257812 456.0625 C 243.933594 450.242188 241.851562 439.394531 244.722656 422.859375 C 246.234375 414.097656 242.539062 412.832031 234.851562 413.050781 C 183.90625 414.476562 132.957031 415.683594 81.996094 416.558594 C 61.703125 416.90625 41.398438 416.179688 21.089844 415.976562 C 17.117188 415.929688 13.273438 415.085938 9.867188 413.238281 C 3.390625 409.730469 0.871094 403.949219 2.414062 396.847656 C 3.855469 390.253906 8.367188 386.191406 15.109375 385.8125 C 21.992188 385.433594 28.921875 385.914062 35.820312 386.074219 C 87.25 387.296875 138.621094 385.726562 190.003906 383.777344 C 207.265625 383.121094 224.546875 382.757812 241.824219 382.773438 C 248.839844 382.785156 251.636719 379.832031 252.757812 373.222656 C 257.125 347.253906 261.695312 321.242188 267.136719 295.5625 C 273.703125 264.660156 274.546875 234.804688 270.574219 203.421875 C 267.589844 179.855469 275.828125 156.40625 292.945312 137.800781 C 300.269531 129.839844 307.851562 122.152344 316.570312 115.707031 C 344.492188 95.035156 373.285156 93.945312 404.011719 109.957031 C 426.371094 121.613281 446.007812 135.589844 457.972656 158.398438 C 460.433594 163.101562 464 164.046875 468.640625 163.667969 C 490.1875 161.9375 511.773438 164.089844 533.390625 162.429688 C 559.691406 160.421875 586.023438 163.871094 612.328125 164.847656 C 619.957031 165.125 623.652344 162.851562 627.789062 156.785156 C 648.558594 126.257812 676.070312 104.746094 713.421875 99.359375 C 747.003906 94.511719 777.367188 102.503906 799.625 129.695312 C 814.285156 147.582031 819.378906 169.679688 820.9375 192.445312 C 821.429688 199.753906 821.882812 207.324219 820.574219 214.441406 C 817.515625 230.890625 820.921875 246.4375 826.480469 261.457031 C 838.972656 295.1875 847.878906 329.84375 854.3125 365.144531 C 855.640625 372.378906 859.261719 372.65625 864.941406 372.859375 C 888.289062 373.730469 911.550781 371.011719 934.882812 371.285156 C 953.007812 371.492188 971.144531 371.316406 989.296875 371.316406 Z M 615.734375 447.910156 C 645.792969 446.558594 675.226562 446.367188 704.339844 442.496094 C 737.28125 438.117188 770.0625 432.4375 803.207031 429.554688 C 810.046875 428.960938 816.816406 427.359375 823.148438 424.285156 C 833.628906 419.222656 834.621094 418.101562 832.1875 406.308594 C 822.972656 361.519531 814.996094 316.480469 798.941406 273.324219 C 791.722656 253.933594 786.730469 233.800781 790.484375 212.433594 C 791.882812 204.484375 791.34375 195.96875 790.425781 187.863281 C 787.894531 165.472656 780.878906 145.488281 757.847656 135.894531 C 728.050781 123.464844 701.269531 131.136719 676.40625 149.023438 C 662.445312 159.070312 654.628906 174.570312 644.25 187.714844 C 639.679688 193.507812 635.574219 196.464844 628.398438 195.984375 C 610.742188 194.820312 593.085938 193.714844 575.414062 193.027344 C 535.6875 191.5 495.980469 193.042969 456.285156 194.148438 C 446.007812 194.441406 437.738281 192.8125 433.300781 181.820312 C 430.753906 175.519531 426.195312 170.015625 422.453125 164.191406 C 412.992188 149.460938 399.136719 139.898438 383.5 133.21875 C 370.414062 127.628906 356.441406 126.347656 343.542969 133.988281 C 311.664062 152.867188 293.457031 180.46875 302.191406 220.496094 C 304.855469 232.738281 307.941406 245.214844 304.839844 257.71875 C 296.714844 290.46875 293.542969 324.125 286.308594 357.050781 C 282.042969 376.441406 278.550781 396.003906 274.984375 415.554688 C 274.007812 420.925781 272.394531 427.460938 281.097656 428.289062 C 301.722656 430.269531 321.492188 437.503906 342.46875 437.546875 C 367.941406 437.589844 393.472656 437.476562 418.875 439.132812 C 441.347656 440.605469 463.78125 436.46875 486.152344 439.601562 C 498.976562 441.390625 511.789062 443.269531 524.554688 445.363281 C 555.105469 450.371094 585.863281 445.875 615.734375 447.910156 Z M 615.734375 447.910156 " fill-opacity="1" fill-rule="nonzero"/><path fill="#e9e9e9" d="M 612.894531 574.683594 C 574.917969 571.25 536.78125 571.410156 499.183594 564.902344 C 476.371094 560.941406 455.875 550.359375 434.203125 543.15625 C 425.484375 540.257812 422.558594 533.082031 424.535156 525.746094 C 426.589844 518.160156 433.691406 513.546875 443.050781 515.789062 C 454.347656 518.496094 465.703125 521.84375 476.242188 526.632812 C 489.078125 532.46875 502.414062 535.382812 516.125 537.257812 C 547.84375 541.597656 579.898438 544.273438 611.730469 543.664062 C 649.621094 542.9375 687.542969 538.511719 723.410156 524.15625 C 731.820312 520.796875 740.453125 517.914062 749.539062 516.761719 C 760.628906 515.367188 768.257812 519.5 770.019531 527.839844 C 771.867188 536.605469 766.960938 543.5625 755.710938 545.847656 C 732.390625 550.5625 711.414062 563.125 687.351562 565.46875 C 662.417969 567.898438 637.933594 574.015625 612.894531 574.683594 Z M 612.894531 574.683594 " fill-opacity="1" fill-rule="nonzero"/><path fill="#e9e9e9" d="M 549.445312 637.902344 C 532.96875 636.605469 519.589844 636.636719 506.285156 638.324219 C 476.445312 642.109375 447.039062 640.375 417.578125 634.03125 C 389.339844 627.945312 361.636719 620.257812 334.242188 611.261719 C 327.5625 609.066406 321.59375 605.730469 316.46875 600.972656 C 309.960938 594.917969 308.566406 587.582031 312.523438 581.292969 C 316.410156 575.105469 324.679688 572.078125 331.914062 576.5625 C 343.964844 584.015625 357.503906 586.839844 370.574219 590.871094 C 414.839844 604.496094 459.589844 615.367188 506.5625 608.234375 C 518.570312 606.417969 530.710938 606.460938 542.734375 607.332031 C 555.691406 608.265625 568.515625 608.46875 581.484375 607.332031 C 595.617188 606.097656 603.550781 611.207031 604.191406 620.679688 C 604.847656 630.375 597.933594 636.167969 583.8125 637.261719 C 571.335938 638.238281 558.847656 639.503906 549.445312 637.902344 Z M 549.445312 637.902344 " fill-opacity="1" fill-rule="nonzero"/><path fill="#e9e9e9" d="M 352.105469 538.148438 C 309.453125 536.136719 271.898438 532.019531 235.054688 521.917969 C 217.28125 517.039062 198.183594 517.710938 181.050781 509.515625 C 174.792969 506.515625 168.792969 503.355469 163.539062 498.699219 C 147.019531 484.039062 148.78125 461.988281 166.085938 446.90625 C 173.105469 440.792969 182.652344 441.230469 188.503906 446.863281 C 194.660156 452.800781 194.28125 459.820312 187.324219 468.507812 C 182.097656 475.03125 182.304688 477.039062 190.132812 480.574219 C 197.164062 483.75 204.296875 486.601562 212.144531 487.824219 C 231.707031 490.851562 251.097656 494.59375 270.414062 499.296875 C 298.085938 506.007812 326.671875 507.535156 355.191406 507.855469 C 360.007812 507.914062 364.492188 506.269531 369.121094 505.25 C 378.976562 503.09375 385.789062 506.253906 388.304688 513.691406 C 390.808594 521.085938 387.492188 528.480469 378.945312 532.746094 C 369.046875 537.667969 358.171875 537.957031 352.105469 538.148438 Z M 352.105469 538.148438 " fill-opacity="1" fill-rule="nonzero"/><path fill="#e9e9e9" d="M 229.523438 590.113281 C 204.355469 588.234375 179.421875 586.109375 156.304688 578.015625 C 129.566406 568.65625 102.535156 558.699219 78.355469 543.53125 C 38.414062 518.480469 46.476562 479.5 71.035156 453.136719 C 77.671875 446.003906 86.945312 446.207031 93 452.175781 C 99.15625 458.230469 99.15625 466.617188 92.941406 474.246094 C 91.3125 476.253906 89.332031 477.984375 87.757812 480.039062 C 76.144531 495.308594 78.878906 509.6875 95.765625 518.945312 C 109.753906 526.617188 124.019531 533.722656 139.390625 538.570312 C 152.449219 542.675781 164.09375 550.054688 178.082031 552.660156 C 195.113281 555.847656 212.160156 557.855469 229.304688 559.71875 C 233.148438 560.140625 237.109375 560.492188 240.734375 561.699219 C 247.910156 564.101562 252.582031 568.773438 251.867188 577.070312 C 251.257812 584.230469 246.25 589.007812 238.011719 590.054688 C 235.042969 590.433594 231.96875 590.113281 229.523438 590.113281 Z M 229.523438 590.113281 " fill-opacity="1" fill-rule="nonzero"/><path fill="#e9e9e9" d="M 715.796875 634.816406 C 711.851562 634.292969 709.214844 634.25 706.769531 633.535156 C 699.359375 631.410156 694.441406 625.121094 695.066406 618.367188 C 695.75 610.988281 700.105469 606.15625 707.339844 605.382812 C 724.515625 603.550781 741.167969 598.46875 758.519531 597.710938 C 777.078125 596.898438 795.507812 594.988281 813.613281 590.347656 C 833.382812 585.265625 853.820312 585.296875 873.949219 583.054688 C 884.695312 581.859375 895.289062 580.476562 905.625 576.953125 C 915.960938 573.429688 924.519531 576.996094 927.167969 584.988281 C 929.730469 592.734375 925.800781 599.808594 916.222656 604.320312 C 909.148438 607.652344 901.679688 610.171875 893.921875 610.785156 C 857.328125 613.695312 821.226562 619.996094 784.9375 625.28125 C 761.53125 628.6875 737.761719 629.96875 715.796875 634.816406 Z M 715.796875 634.816406 " fill-opacity="1" fill-rule="nonzero"/><path fill="#e9e9e9" d="M 968.769531 474.753906 C 968.800781 496.382812 960.679688 508.058594 942.160156 515.804688 C 913.121094 527.941406 882.261719 531.757812 851.476562 535.976562 C 845.492188 536.792969 839.480469 537.726562 833.46875 537.828125 C 821.765625 538.015625 814.910156 533.257812 813.933594 524.988281 C 812.902344 516.210938 819.421875 509.675781 831.285156 508.058594 C 846.671875 505.960938 862.101562 504.1875 877.503906 502.121094 C 894.664062 499.804688 911.375 495.628906 927.578125 489.484375 C 932.832031 487.492188 938.464844 485.730469 938.640625 478.539062 C 938.828125 471.289062 937.460938 464.738281 930.402344 460.851562 C 928.128906 459.601562 925.757812 458.496094 923.632812 457.054688 C 916.003906 451.871094 913.441406 445.042969 916.46875 438.363281 C 919.714844 431.171875 927.546875 427.78125 936.265625 430.835938 C 949.351562 435.421875 960.007812 443.007812 964.855469 456.90625 C 967.15625 463.472656 968.65625 470.140625 968.769531 474.753906 Z M 968.769531 474.753906 " fill-opacity="1" fill-rule="nonzero"/><path fill="#e9e9e9" d="M 1068.164062 499.46875 C 1070.347656 514.695312 1061.859375 526.355469 1052.355469 537.140625 C 1034.902344 556.925781 1013.691406 571.421875 988.65625 580.113281 C 987.433594 580.535156 986.222656 581.042969 984.988281 581.378906 C 974.199219 584.335938 966.136719 581.304688 963.195312 573.257812 C 960.285156 565.265625 964.519531 557.375 975.015625 553.488281 C 993.050781 546.824219 1009.355469 537.652344 1023.371094 524.273438 C 1042.644531 505.890625 1044.011719 492.90625 1027.972656 471.433594 C 1023.574219 465.570312 1018.816406 459.980469 1014.171875 454.289062 C 1012.804688 452.613281 1011.175781 451.15625 1009.878906 449.441406 C 1005.015625 442.949219 1004.101562 433.398438 1007.8125 428.902344 C 1011.640625 424.257812 1022.5 423.371094 1029.5 427.941406 C 1042.035156 436.121094 1051.714844 447.316406 1058.628906 460.386719 C 1064.902344 472.265625 1069.441406 484.972656 1068.164062 499.46875 Z M 1068.164062 499.46875 " fill-opacity="1" fill-rule="nonzero"/><path fill="#e9e9e9" d="M 701.339844 311.328125 C 665.996094 312.972656 630.757812 302.683594 594.832031 298.054688 C 550.796875 292.375 507.347656 291.722656 463.429688 299.976562 C 429.019531 306.4375 393.777344 305.957031 358.769531 305.417969 C 353.152344 305.332031 347.546875 304.632812 342.207031 302.667969 C 333.964844 299.625 329.890625 293.382812 331.15625 285.914062 C 332.4375 278.375 338.171875 273.539062 347.316406 274.328125 C 361.988281 275.578125 376.617188 275.664062 391.320312 275.332031 C 422.453125 274.601562 453.328125 271.894531 484.117188 266.742188 C 522.269531 260.367188 560.695312 262.144531 598.980469 266.828125 C 632.824219 270.964844 666.214844 278.503906 700.367188 280.324219 C 717.613281 281.242188 734.777344 279.539062 751.9375 278.226562 C 760.949219 277.542969 767.238281 281.183594 769.304688 288.316406 C 771.5625 296.042969 767.746094 303.277344 759.144531 306.773438 C 755.578125 308.214844 751.71875 309.347656 747.90625 309.699219 C 732.882812 311.082031 717.863281 313.351562 701.339844 311.328125 Z M 701.339844 311.328125 " fill-opacity="1" fill-rule="nonzero"/><path fill="#e9e9e9" d="M 721.429688 234.851562 C 705.269531 235.214844 690.351562 221.867188 690.058594 206.753906 C 689.738281 190.089844 705.214844 173.246094 721.152344 172.914062 C 736.480469 172.59375 750.335938 185.894531 750.703125 201.28125 C 751.109375 218.691406 737.339844 234.472656 721.429688 234.851562 Z M 721.429688 234.851562 " fill-opacity="1" fill-rule="nonzero"/><path fill="#e9e9e9" d="M 365.175781 227.25 C 345.101562 225.96875 333.28125 215.589844 334.199219 200.058594 C 335.132812 184.121094 350.136719 172.226562 367.824219 173.40625 C 382.003906 174.339844 391.433594 185.707031 390.621094 200.875 C 389.730469 217.5 379.441406 228.152344 365.175781 227.25 Z M 365.175781 227.25 " fill-opacity="1" fill-rule="nonzero"/></svg>