<svg xmlns="http://www.w3.org/2000/svg" xmlns:xlink="http://www.w3.org/1999/xlink" width="1512" zoomAndPan="magnify" viewBox="0 0 1134 736.499978" height="982" preserveAspectRatio="xMidYMid meet" version="1.0"><defs><filter x="0%" y="0%" width="100%" height="100%" id="347cf820a5"><feColorMatrix values="0 0 0 0 1 0 0 0 0 1 0 0 0 0 1 0 0 0 1 0" color-interpolation-filters="sRGB"/></filter><clipPath id="d985d257ba"><path d="M 350 604 L 834 604 L 834 736 L 350 736 Z M 350 604 " clip-rule="nonzero"/></clipPath><mask id="f069c13d54"><g filter="url(#347cf820a5)"><rect x="-113.4" width="1360.8" fill="#000000" y="-73.649998" height="883.799974" fill-opacity="0.2"/></g></mask><clipPath id="9f1af29574"><path d="M 4 4 L 406 4 L 406 136 L 4 136 Z M 4 4 " clip-rule="nonzero"/></clipPath><clipPath id="4db8187d8a"><rect x="0" width="411" y="0" height="136"/></clipPath><clipPath id="0784fc351d"><path d="M 216.773438 2 L 967.015625 2 L 967.015625 726 L 216.773438 726 Z M 216.773438 2 " clip-rule="nonzero"/></clipPath><clipPath id="c7822025c5"><path d="M 527.082031 225.785156 L 674.058594 225.785156 L 674.058594 338.785156 L 527.082031 338.785156 Z M 527.082031 225.785156 " clip-rule="nonzero"/></clipPath><clipPath id="e50cee1b00"><path d="M 419 16 L 541 16 L 541 93 L 419 93 Z M 419 16 " clip-rule="nonzero"/></clipPath><clipPath id="e15ff5da30"><path d="M 431.667969 16.824219 L 540.328125 63.214844 L 527.757812 92.65625 L 419.097656 46.269531 Z M 431.667969 16.824219 " clip-rule="nonzero"/></clipPath><clipPath id="7ed22edb78"><path d="M 652 17 L 769 17 L 769 89 L 652 89 Z M 652 17 " clip-rule="nonzero"/></clipPath><clipPath id="b7e6d96423"><path d="M 652.296875 67.949219 L 759.230469 17.707031 L 768.921875 38.335938 L 661.992188 88.578125 Z M 652.296875 67.949219 " clip-rule="nonzero"/></clipPath></defs><g clip-path="url(#d985d257ba)"><path fill="#fbef95" d="M 592.042969 604.070312 C 725.285156 604.070312 833.304688 724.480469 833.304688 873.027344 C 672.464844 926.640625 511.625 926.640625 350.785156 873.027344 C 350.785156 724.488281 458.808594 604.070312 592.042969 604.070312 Z M 592.042969 604.070312 " fill-opacity="1" fill-rule="evenodd"/></g><g mask="url(#f069c13d54)"><g transform="matrix(1, 0, 0, 1, 387, 600)"><g clip-path="url(#4db8187d8a)"><g clip-path="url(#9f1af29574)"><path fill="#4c692f" d="M 205.042969 4.070312 C 288.519531 4.070312 362.078125 51.328125 405.402344 123.15625 C 347.414062 153.371094 278.71875 170.871094 205.042969 170.871094 C 131.375 170.871094 62.667969 153.371094 4.691406 123.15625 C 48.011719 51.328125 121.574219 4.070312 205.042969 4.070312 Z M 205.042969 4.070312 " fill-opacity="1" fill-rule="evenodd"/></g></g></g></g><g clip-path="url(#0784fc351d)"><path fill="#fbef95" d="M 592.042969 106.449219 C 601.761719 106.449219 611.398438 106.753906 620.941406 107.351562 L 620.941406 107.199219 C 620.941406 49.558594 666.15625 2.835938 721.9375 2.835938 C 777.71875 2.835938 822.933594 49.558594 822.933594 107.199219 C 822.933594 127.511719 817.3125 146.460938 807.59375 162.5 C 904.261719 218.46875 967.460938 311.039062 967.460938 415.785156 C 967.460938 586.640625 799.382812 725.128906 592.042969 725.128906 C 384.710938 725.128906 216.625 586.628906 216.625 415.785156 C 216.625 311.039062 279.820312 218.46875 376.492188 162.5 C 366.769531 146.460938 361.148438 127.511719 361.148438 107.199219 C 361.148438 49.558594 406.363281 2.835938 462.144531 2.835938 C 517.925781 2.835938 563.140625 49.558594 563.140625 107.199219 L 563.140625 107.351562 C 572.691406 106.753906 582.320312 106.449219 592.042969 106.449219 Z M 592.042969 106.449219 " fill-opacity="1" fill-rule="evenodd"/></g><path fill="#98c34c" d="M 238.203125 312.199219 C 242.84375 301.445312 248.183594 290.96875 254.179688 280.792969 C 254.789062 280.722656 255.402344 280.6875 256.027344 280.6875 C 266.65625 280.6875 275.269531 290.914062 275.269531 303.5625 C 275.269531 316.191406 266.65625 326.4375 256.027344 326.4375 C 247.976562 326.4375 241.078125 320.554688 238.203125 312.199219 Z M 901.574219 340.375 C 894.566406 340.375 888.882812 345.722656 888.882812 352.320312 C 888.882812 358.90625 894.566406 364.25 901.574219 364.25 C 908.578125 364.25 914.265625 358.90625 914.265625 352.320312 C 914.265625 345.714844 908.578125 340.375 901.574219 340.375 Z M 875.496094 283.480469 C 865.175781 283.480469 856.804688 291.351562 856.804688 301.054688 C 856.804688 310.761719 865.175781 318.636719 875.496094 318.636719 C 885.8125 318.636719 894.183594 310.761719 894.183594 301.054688 C 894.183594 291.34375 885.8125 283.480469 875.496094 283.480469 Z M 930.242188 281.363281 C 937.417969 293.601562 943.636719 306.273438 948.839844 319.332031 C 945.332031 323.703125 940.390625 326.4375 934.898438 326.4375 C 924.269531 326.4375 915.65625 316.199219 915.65625 303.5625 C 915.65625 292.832031 921.859375 283.84375 930.242188 281.363281 Z M 289.363281 340.375 C 296.371094 340.375 302.054688 345.722656 302.054688 352.320312 C 302.054688 358.90625 296.371094 364.25 289.363281 364.25 C 282.355469 364.25 276.671875 358.90625 276.671875 352.320312 C 276.671875 345.714844 282.355469 340.375 289.363281 340.375 Z M 315.441406 283.480469 C 325.761719 283.480469 334.132812 291.351562 334.132812 301.054688 C 334.132812 310.761719 325.761719 318.636719 315.441406 318.636719 C 305.125 318.636719 296.753906 310.761719 296.753906 301.054688 C 296.753906 291.34375 305.117188 283.480469 315.441406 283.480469 Z M 315.441406 283.480469 " fill-opacity="1" fill-rule="evenodd"/><path fill="#171717" d="M 478.46875 82.71875 C 497.445312 82.71875 512.839844 98.105469 512.839844 117.089844 C 512.839844 136.0625 497.453125 151.457031 478.46875 151.457031 C 459.484375 151.457031 444.097656 136.0625 444.097656 117.089844 C 444.105469 98.105469 459.492188 82.71875 478.46875 82.71875 Z M 551.332031 316.832031 C 551.332031 322.070312 547.085938 326.320312 541.847656 326.320312 C 536.605469 326.320312 532.359375 322.070312 532.359375 316.832031 C 532.359375 300.347656 539.042969 285.414062 549.84375 274.625 C 560.640625 263.835938 575.566406 257.140625 592.050781 257.140625 C 608.527344 257.140625 623.457031 263.824219 634.257812 274.625 C 645.054688 285.425781 651.742188 300.355469 651.742188 316.832031 C 651.742188 322.070312 647.492188 326.320312 642.253906 326.320312 C 637.015625 326.320312 632.765625 322.070312 632.765625 316.832031 C 632.765625 305.578125 628.207031 295.402344 620.84375 288.03125 C 613.480469 280.660156 603.296875 276.105469 592.050781 276.105469 C 580.804688 276.105469 570.621094 280.667969 563.257812 288.03125 C 555.894531 295.394531 551.332031 305.578125 551.332031 316.832031 Z M 670.726562 83.804688 C 665.976562 85.992188 660.355469 83.921875 658.167969 79.175781 C 655.980469 74.425781 658.050781 68.804688 662.800781 66.617188 L 742.011719 29.800781 C 746.757812 27.605469 752.382812 29.683594 754.566406 34.433594 C 756.753906 39.179688 754.683594 44.804688 749.9375 46.988281 Z M 521.300781 66.625 L 442.089844 29.808594 C 437.34375 27.613281 431.710938 29.691406 429.523438 34.441406 C 427.335938 39.1875 429.40625 44.8125 434.15625 47 L 513.367188 83.816406 C 518.113281 86 523.738281 83.929688 525.921875 79.183594 C 528.121094 74.433594 526.039062 68.8125 521.300781 66.625 Z M 705.621094 82.71875 C 686.648438 82.71875 671.25 98.105469 671.25 117.089844 C 671.25 136.0625 686.636719 151.457031 705.621094 151.457031 C 724.605469 151.457031 739.992188 136.0625 739.992188 117.089844 C 739.992188 98.105469 724.605469 82.71875 705.621094 82.71875 Z M 705.621094 82.71875 " fill-opacity="1" fill-rule="evenodd"/><g clip-path="url(#c7822025c5)"><path fill="#fbef95" d="M 527.082031 225.785156 L 674.070312 225.785156 L 674.070312 338.785156 L 527.082031 338.785156 Z M 527.082031 225.785156 " fill-opacity="1" fill-rule="nonzero"/></g><g clip-path="url(#e50cee1b00)"><g clip-path="url(#e15ff5da30)"><path fill="#fbef95" d="M 431.667969 16.824219 L 540.355469 63.226562 L 527.785156 92.667969 L 419.097656 46.269531 Z M 431.667969 16.824219 " fill-opacity="1" fill-rule="nonzero"/></g></g><g clip-path="url(#7ed22edb78)"><g clip-path="url(#b7e6d96423)"><path fill="#fbef95" d="M 652.296875 67.949219 L 759.238281 17.699219 L 768.933594 38.332031 L 661.992188 88.578125 Z M 652.296875 67.949219 " fill-opacity="1" fill-rule="nonzero"/></g></g><path stroke-linecap="round" transform="matrix(0.716121, 0.22115, -0.22115, 0.716121, 690.924988, 22.221071)" fill="none" stroke-linejoin="miter" d="M 15.071493 33.574657 C 44.017054 2.778677 72.963221 2.807205 101.911533 33.665221 " stroke="#2d2a2b" stroke-width="21" stroke-opacity="1" stroke-miterlimit="4"/><path stroke-linecap="round" transform="matrix(0.668572, -0.338746, 0.338746, 0.668572, 395.144266, 64.506528)" fill="none" stroke-linejoin="miter" d="M 15.06926 33.578571 C 44.019214 2.778946 72.965902 2.809481 101.911678 33.665529 " stroke="#2d2a2b" stroke-width="21" stroke-opacity="1" stroke-miterlimit="4"/><path stroke-linecap="butt" transform="matrix(0.749083, 0.024742, -0.024742, 0.749083, 472.228706, 412.652522)" fill="none" stroke-linejoin="miter" d="M 8.255919 8.16969 C 87.997156 109.621511 190.742662 109.622636 316.492436 8.173065 " stroke="#000000" stroke-width="21" stroke-opacity="1" stroke-miterlimit="4"/></svg>